<svg version="1.1" xmlns="http://www.w3.org/2000/svg" viewBox="0 0 951 919" width="951" height="919">
  <!-- svg-source:excalidraw -->
  
  <defs>
    <style class="style-fonts">
      @font-face {
        font-family: "Virgil";
        src: url("https://excalidraw.com/Virgil.woff2");
      }
      @font-face {
        font-family: "Cascadia";
        src: url("https://excalidraw.com/Cascadia.woff2");
      }
      @font-face {
        font-family: "Assistant";
        src: url("https://excalidraw.com/Assistant-Regular.woff2");
      }
    </style>
    
  </defs>
  <g stroke-linecap="round" transform="translate(414 13) rotate(0 263.5 448)"><path d="M7.86 8.16 C7.86 8.16, 7.86 8.16, 7.86 8.16 M7.86 8.16 C7.86 8.16, 7.86 8.16, 7.86 8.16 M1.43 27.75 C5.98 20.08, 12.6 13.84, 24.4 1.33 M1.43 27.75 C9.54 17.7, 18.46 9.63, 24.4 1.33 M0.26 41.3 C12.91 27.02, 26.81 11.05, 36.34 -0.21 M0.26 41.3 C13.23 26.98, 25.4 11.12, 36.34 -0.21 M0.39 53.34 C15.35 33.37, 31.73 13.75, 46.97 -0.25 M0.39 53.34 C18.38 33.58, 35.71 13.98, 46.97 -0.25 M0.52 65.38 C20 43.77, 35.33 22.48, 57.6 -0.28 M0.52 65.38 C15.71 48.69, 30.67 32.72, 57.6 -0.28 M0 78.17 C16.22 57.1, 32.57 41.22, 67.57 0.44 M0 78.17 C14.44 62.83, 28.06 46.55, 67.57 0.44 M0.13 90.22 C18.52 67.12, 38.82 45.26, 78.2 0.41 M0.13 90.22 C17.07 70.4, 33.56 50.27, 78.2 0.41 M0.26 102.26 C27.45 71.38, 54.86 36.52, 88.83 0.37 M0.26 102.26 C32.18 65.82, 65.22 29.23, 88.83 0.37 M0.4 114.3 C26.54 87.6, 48.76 55.92, 99.46 0.34 M0.4 114.3 C25.02 83.85, 50.26 56.07, 99.46 0.34 M0.53 126.34 C33 89.15, 67.9 49.72, 110.09 0.3 M0.53 126.34 C39.03 85.47, 75.05 41.53, 110.09 0.3 M0.01 139.13 C48.41 88.91, 92.53 33.26, 120.72 0.27 M0.01 139.13 C41.33 92.16, 81.91 45.61, 120.72 0.27 M0.14 151.17 C37.65 107.29, 75.21 63.14, 131.35 0.23 M0.14 151.17 C45.31 98.63, 89.51 46.36, 131.35 0.23 M0.27 163.22 C38.62 119.3, 76.45 76.75, 141.98 0.2 M0.27 163.22 C39.05 117.08, 79.26 70.52, 141.98 0.2 M0.41 175.26 C39.32 127.61, 77.63 83.53, 152.61 0.16 M0.41 175.26 C55.43 109.95, 113.28 45.11, 152.61 0.16 M0.54 187.3 C59.68 121.91, 114.98 57.77, 163.24 0.13 M0.54 187.3 C37.47 141.14, 76.46 97.32, 163.24 0.13 M0.02 200.09 C55.1 139.06, 107.55 78.71, 173.87 0.09 M0.02 200.09 C54.82 134.96, 111.94 70.39, 173.87 0.09 M0.15 212.13 C74.38 128.35, 147.78 43.37, 184.5 0.06 M0.15 212.13 C40.85 163.84, 81.72 116.07, 184.5 0.06 M0.28 224.17 C63.49 151.88, 123.22 82.59, 195.13 0.03 M0.28 224.17 C56.82 158.29, 113.13 92.55, 195.13 0.03 M0.42 236.22 C40.59 187.49, 85.03 136.87, 205.76 -0.01 M0.42 236.22 C81.26 143.04, 161.31 50.13, 205.76 -0.01 M-0.11 249.01 C47.02 194.34, 93.69 139.4, 216.39 -0.04 M-0.11 249.01 C61.87 179.28, 120.91 110.17, 216.39 -0.04 M0.03 261.05 C68.42 183.5, 136 105.04, 227.02 -0.08 M0.03 261.05 C80.55 167.39, 161.26 75.12, 227.02 -0.08 M0.16 273.09 C82.62 177.19, 164.31 83.77, 237.65 -0.11 M0.16 273.09 C62.67 200.64, 126.25 127.46, 237.65 -0.11 M0.29 285.13 C53.89 221.8, 107.18 160.04, 248.28 -0.15 M0.29 285.13 C65.77 211.47, 130.16 137.61, 248.28 -0.15 M0.43 297.17 C73.32 213.11, 148.1 126.76, 258.91 -0.18 M0.43 297.17 C92.38 191.5, 184.68 86.03, 258.91 -0.18 M-0.1 309.97 C64.81 235.73, 131.58 160.26, 269.54 -0.22 M-0.1 309.97 C85.46 211.11, 170.3 113.26, 269.54 -0.22 M0.04 322.01 C65.52 250.13, 127.43 177.67, 280.17 -0.25 M0.04 322.01 C64.49 248.29, 129.85 174.17, 280.17 -0.25 M0.17 334.05 C78.58 244.17, 157.77 154.63, 290.8 -0.28 M0.17 334.05 C79.95 243.57, 158.15 152.68, 290.8 -0.28 M0.3 346.09 C65.1 272.35, 128 200.47, 300.78 0.44 M0.3 346.09 C86.79 246.98, 172.62 149.37, 300.78 0.44 M0.44 358.13 C102.78 241.41, 205.65 124.2, 311.41 0.4 M0.44 358.13 C102.02 238.98, 204.52 121.32, 311.41 0.4 M-0.09 370.93 C86.48 271.73, 173.75 170.14, 322.04 0.37 M-0.09 370.93 C95.92 259.85, 191.92 149.29, 322.04 0.37 M0.05 382.97 C91.32 276.47, 182.76 171.53, 332.67 0.33 M0.05 382.97 C78.35 291.74, 157.25 200.97, 332.67 0.33 M0.18 395.01 C107.69 271.04, 214.21 149.3, 343.3 0.3 M0.18 395.01 C124.41 252.4, 248.92 108.61, 343.3 0.3 M0.31 407.05 C101.68 289.44, 204.19 170.82, 353.93 0.26 M0.31 407.05 C139.77 247.81, 278.79 87.41, 353.93 0.26 M0.45 419.09 C77.52 332.03, 154.12 243.93, 364.56 0.23 M0.45 419.09 C130.29 268.03, 261.16 117.73, 364.56 0.23 M-0.08 431.89 C142.07 270.26, 282.67 107.98, 375.19 0.19 M-0.08 431.89 C126.44 283.86, 254.39 136.91, 375.19 0.19 M0.06 443.93 C127.04 296.76, 254.43 150.08, 385.82 0.16 M0.06 443.93 C103.46 324.54, 208.46 204.48, 385.82 0.16 M0.19 455.97 C107.69 330.17, 214.55 206.8, 396.45 0.12 M0.19 455.97 C108.12 332.14, 216.93 206.65, 396.45 0.12 M0.32 468.01 C84.93 372.47, 167.47 277.87, 407.08 0.09 M0.32 468.01 C112.79 338.44, 225.6 209.25, 407.08 0.09 M0.46 480.05 C142.26 317.2, 283.2 156.55, 417.71 0.06 M0.46 480.05 C142.35 317.85, 282.53 156.78, 417.71 0.06 M-0.07 492.85 C103.52 374.6, 207.57 255.07, 428.34 0.02 M-0.07 492.85 C108.34 366.87, 218.59 240.01, 428.34 0.02 M0.07 504.89 C111.29 373.85, 224.44 243.72, 438.97 -0.01 M0.07 504.89 C139.9 342.77, 279.75 182.16, 438.97 -0.01 M0.2 516.93 C104.24 398.44, 207.94 278.13, 449.6 -0.05 M0.2 516.93 C129.73 365.45, 260.16 215.86, 449.6 -0.05 M0.33 528.97 C160.57 344.85, 319.02 162.76, 460.23 -0.08 M0.33 528.97 C164.58 339.09, 330.26 149.09, 460.23 -0.08 M0.47 541.01 C111.82 412.58, 224.43 282.08, 470.86 -0.12 M0.47 541.01 C165.6 351.92, 330.38 161.88, 470.86 -0.12 M-0.06 553.81 C115.91 417.88, 234.63 282.34, 481.49 -0.15 M-0.06 553.81 C117.59 417.11, 236.41 280.6, 481.49 -0.15 M0.08 565.85 C147.97 393.28, 297.85 220.97, 492.12 -0.19 M0.08 565.85 C102.21 446.95, 207.17 326.56, 492.12 -0.19 M0.21 577.89 C107.06 452.11, 215.33 327.57, 501.44 1.29 M0.21 577.89 C159.56 395.9, 317.72 213.82, 501.44 1.29 M0.34 589.93 C176.2 389.45, 351.5 186.85, 510.76 2.76 M0.34 589.93 C178.08 383.9, 356.65 178.06, 510.76 2.76 M0.48 601.97 C133.99 447.31, 268.04 294.52, 517.45 7.26 M0.48 601.97 C183.99 391.36, 365.92 181.72, 517.45 7.26 M-0.05 614.76 C134.11 461.55, 268.18 308.61, 522.83 13.26 M-0.05 614.76 C121.08 474.23, 243.11 333.58, 522.83 13.26 M0.09 626.81 C207.18 390.75, 410.71 156.47, 525.59 22.28 M0.09 626.81 C154.09 453.61, 306.02 279.15, 525.59 22.28 M0.22 638.85 C107.72 514.24, 216.25 390.85, 527.69 32.06 M0.22 638.85 C124.07 497.29, 246.5 356.23, 527.69 32.06 M0.35 650.89 C188.21 434.25, 374.66 218.99, 527.17 44.86 M0.35 650.89 C162.87 464.64, 325.38 277.9, 527.17 44.86 M0.49 662.93 C180.31 458.3, 359.71 253.32, 527.3 56.9 M0.49 662.93 C164.82 473.15, 331.84 281.79, 527.3 56.9 M-0.04 675.72 C171.08 477.84, 344.16 279.66, 527.43 68.94 M-0.04 675.72 C179.22 473, 356.68 267.85, 527.43 68.94 M0.1 687.76 C150.35 513.8, 301.71 341.13, 527.57 80.98 M0.1 687.76 C185.99 473.77, 371.13 261.49, 527.57 80.98 M0.23 699.81 C110.83 575.78, 219.65 450.62, 527.7 93.02 M0.23 699.81 C189.21 482.94, 377.26 266.07, 527.7 93.02 M0.36 711.85 C129.05 563.41, 256.79 416.33, 527.18 105.81 M0.36 711.85 C104.11 588.84, 209.27 467.48, 527.18 105.81 M0.49 723.89 C168.16 529.96, 337.32 335.69, 527.31 117.86 M0.49 723.89 C156.26 545.92, 309.69 369.02, 527.31 117.86 M-0.03 736.68 C152.92 562.58, 303.22 388.12, 527.44 129.9 M-0.03 736.68 C119.1 598.09, 240.12 458.93, 527.44 129.9 M0.11 748.72 C167.34 555.63, 336.4 362.73, 527.58 141.94 M0.11 748.72 C169.46 555.48, 337.6 362.47, 527.58 141.94 M0.24 760.76 C143.35 595.42, 287.12 430.89, 527.71 153.98 M0.24 760.76 C212.83 518.22, 423.36 276.21, 527.71 153.98 M0.37 772.81 C148.9 600.66, 297.88 428.3, 527.19 166.77 M0.37 772.81 C192.29 553.14, 382.34 334.61, 527.19 166.77 M0.5 784.85 C172.09 586.69, 343.65 389.37, 527.32 178.81 M0.5 784.85 C194.2 561.97, 389.86 337.77, 527.32 178.81 M-0.02 797.64 C115.63 665.13, 229.89 531.48, 527.45 190.86 M-0.02 797.64 C203.66 561.67, 409.33 324.5, 527.45 190.86 M0.11 809.68 C186.95 593.83, 376.89 375.39, 527.59 202.9 M0.11 809.68 C109.23 688.67, 216.05 566.11, 527.59 202.9 M0.25 821.72 C188.38 607.45, 375.56 391.74, 527.72 214.94 M0.25 821.72 C170.91 622.3, 343.45 423.84, 527.72 214.94 M0.38 833.76 C182.61 621.79, 369.06 409.52, 527.2 227.73 M0.38 833.76 C132.49 680.66, 264.88 528.56, 527.2 227.73 M0.51 845.81 C136.55 693.82, 269.17 540.71, 527.33 239.77 M0.51 845.81 C177.9 637.36, 357.64 430.8, 527.33 239.77 M-0.01 858.6 C138.54 699.28, 276.98 538.29, 527.46 251.81 M-0.01 858.6 C144.75 691.66, 288.04 526.31, 527.46 251.81 M0.78 869.89 C157.33 688.77, 315.84 506.06, 527.6 263.86 M0.78 869.89 C186.67 659.96, 369.75 448.32, 527.6 263.86 M2.88 879.66 C174.51 679.42, 347.96 480.07, 527.73 275.9 M2.88 879.66 C171.09 685.88, 339.87 491.79, 527.73 275.9 M7.61 886.42 C115.51 762.8, 222.06 641.4, 527.21 288.69 M7.61 886.42 C174.33 695.55, 338.36 506.62, 527.21 288.69 M12.99 892.42 C202.15 674.56, 391.43 456.67, 527.34 300.73 M12.99 892.42 C139.41 744.15, 267.77 596.48, 527.34 300.73 M21.65 894.65 C176.15 716.88, 331.14 538.19, 527.47 312.77 M21.65 894.65 C202.03 685.53, 382.73 477.62, 527.47 312.77 M30.97 896.13 C161.14 744.81, 291.4 593.8, 527.61 324.81 M30.97 896.13 C135.26 778.51, 239.45 658.89, 527.61 324.81 M41.6 896.09 C174.45 744.47, 306.47 592.58, 527.74 336.85 M41.6 896.09 C153.39 763.98, 268.29 632.16, 527.74 336.85 M52.23 896.06 C185.97 740.5, 319.47 587.49, 527.22 349.65 M52.23 896.06 C216.43 707.72, 381.85 517.92, 527.22 349.65 M62.86 896.03 C245.84 688.33, 426.01 479.97, 527.35 361.69 M62.86 896.03 C185.43 756, 307.15 616.77, 527.35 361.69 M73.49 895.99 C240.1 705, 406.41 513.99, 527.48 373.73 M73.49 895.99 C216.91 731.57, 359.28 567.79, 527.48 373.73 M84.12 895.96 C209.73 752.94, 334.04 608.46, 527.62 385.77 M84.12 895.96 C256.81 695.49, 431.81 494.65, 527.62 385.77 M94.75 895.92 C195.52 777.1, 296.74 660.2, 527.75 397.81 M94.75 895.92 C248.38 719.9, 401.84 543, 527.75 397.81 M105.38 895.89 C270.48 706.16, 433.86 516.73, 527.23 410.61 M105.38 895.89 C247.98 730.98, 392.37 565.03, 527.23 410.61 M116.01 895.85 C232.62 761.12, 349.31 627.17, 527.36 422.65 M116.01 895.85 C202.37 794.46, 290.36 693.32, 527.36 422.65 M125.98 896.57 C239.41 765.32, 354.15 632.67, 527.49 434.69 M125.98 896.57 C229.13 776.95, 334.9 655.99, 527.49 434.69 M136.61 896.54 C250.19 764.93, 363.95 635.28, 527.62 446.73 M136.61 896.54 C227.96 789.78, 319.78 683.78, 527.62 446.73 M147.24 896.5 C285.96 735.83, 424.42 575.51, 527.1 459.53 M147.24 896.5 C246.19 784.47, 344.35 671.79, 527.1 459.53 M157.87 896.47 C266.35 770.16, 373.95 646.41, 527.24 471.57 M157.87 896.47 C251.76 786.53, 347.8 676.77, 527.24 471.57 M168.5 896.44 C298.08 747.49, 427.31 598.59, 527.37 483.61 M168.5 896.44 C271.28 780.16, 373.73 662.85, 527.37 483.61 M179.13 896.4 C290.83 766.56, 403.27 638.01, 527.5 495.65 M179.13 896.4 C293.18 766.37, 406.68 635.7, 527.5 495.65 M189.76 896.37 C262.11 812.2, 333.62 727.95, 527.63 507.69 M189.76 896.37 C272.37 800.64, 354.35 706.93, 527.63 507.69 M200.39 896.33 C292.2 791.48, 385.24 684.71, 527.11 520.49 M200.39 896.33 C324.34 753.91, 446.94 612.66, 527.11 520.49 M211.02 896.3 C276.61 818.32, 342.33 741.84, 527.24 532.53 M211.02 896.3 C300.69 792.93, 389.91 689.92, 527.24 532.53 M221.65 896.26 C295.79 808.59, 371.81 720.86, 527.38 544.57 M221.65 896.26 C327.56 775.01, 433.1 653.92, 527.38 544.57 M232.28 896.23 C303.86 812.49, 376.94 728.26, 527.51 556.61 M232.28 896.23 C321.98 792.05, 411.13 689.54, 527.51 556.61 M242.91 896.19 C350.71 772.53, 458.77 648.05, 527.64 568.65 M242.91 896.19 C317.03 807.92, 393.14 719.84, 527.64 568.65 M253.54 896.16 C349.59 782.2, 448.46 668.69, 527.12 581.45 M253.54 896.16 C321.3 817.03, 389.93 739.33, 527.12 581.45 M264.17 896.13 C367.84 774.2, 471.99 654.69, 527.25 593.49 M264.17 896.13 C363.5 783.1, 462.24 668.49, 527.25 593.49 M274.8 896.09 C326.28 836.09, 376.56 778.24, 527.39 605.53 M274.8 896.09 C330.22 833.64, 386.21 770.11, 527.39 605.53 M285.43 896.06 C363.46 806.82, 439.68 718.57, 527.52 617.57 M285.43 896.06 C334.01 837.81, 385.12 779.59, 527.52 617.57 M296.06 896.02 C380.09 799.89, 462.61 702.07, 527.65 629.61 M296.06 896.02 C378.04 800.28, 460.82 706.01, 527.65 629.61 M306.7 895.99 C381.29 812.36, 451.25 728.7, 527.13 642.4 M306.7 895.99 C370.69 824.03, 434.78 750.35, 527.13 642.4 M317.33 895.95 C368.35 838.54, 419.33 779.22, 527.26 654.45 M317.33 895.95 C389.27 809.83, 463.6 724.58, 527.26 654.45 M327.96 895.92 C384.32 831.7, 439.38 766.85, 527.4 666.49 M327.96 895.92 C376.7 838.16, 426.61 780.72, 527.4 666.49 M338.59 895.88 C410.82 811.04, 485.96 726.75, 527.53 678.53 M338.59 895.88 C404.86 819.9, 470.86 743.87, 527.53 678.53 M349.22 895.85 C386.55 852.91, 425.61 806.96, 527.66 690.57 M349.22 895.85 C404.27 830.53, 461.46 765.23, 527.66 690.57 M359.19 896.57 C417.93 826.61, 480.48 756.82, 527.14 703.36 M359.19 896.57 C397.96 850.57, 437.19 805.37, 527.14 703.36 M369.82 896.53 C411.04 847.91, 449.69 801.33, 527.27 715.4 M369.82 896.53 C405.57 858.3, 440.21 818.14, 527.27 715.4 M380.45 896.5 C417.39 854.74, 452.7 812.86, 527.41 727.45 M380.45 896.5 C430.03 836.71, 480.61 778.86, 527.41 727.45 M391.08 896.47 C430.85 851.96, 468.73 807.89, 527.54 739.49 M391.08 896.47 C429.95 851.6, 466.54 808.44, 527.54 739.49 M401.71 896.43 C449.64 841.52, 493.63 790.55, 527.67 751.53 M401.71 896.43 C447.94 843.16, 495.51 789.81, 527.67 751.53 M412.34 896.4 C441.19 858.74, 474.72 824.95, 527.15 764.32 M412.34 896.4 C448.81 853.88, 486 811.9, 527.15 764.32 M422.97 896.36 C462.43 851.24, 499.66 806.66, 527.28 776.36 M422.97 896.36 C448.83 866.51, 472.58 837.16, 527.28 776.36 M433.6 896.33 C466.86 860.21, 501.5 820.96, 527.42 788.4 M433.6 896.33 C465.21 857.72, 500.46 819.86, 527.42 788.4 M444.23 896.29 C469.23 868.37, 495.11 836.72, 527.55 800.45 M444.23 896.29 C466.34 872.48, 485.51 847.47, 527.55 800.45 M454.86 896.26 C483.09 866.31, 505.89 835.4, 527.68 812.49 M454.86 896.26 C479.54 868.61, 502.22 842.61, 527.68 812.49 M465.49 896.22 C488.38 867.99, 511.41 840.72, 527.16 825.28 M465.49 896.22 C485.12 873.68, 503.92 852.18, 527.16 825.28 M476.12 896.19 C489.15 878.46, 506.18 862.27, 527.29 837.32 M476.12 896.19 C492.12 877.88, 508.12 857.19, 527.29 837.32 M486.75 896.16 C497.91 885.45, 505.55 874.88, 527.43 849.36 M486.75 896.16 C499.93 880.51, 513.56 865.87, 527.43 849.36 M497.38 896.12 C503.31 890.05, 511.85 882.82, 527.56 861.4 M497.38 896.12 C509.33 882.31, 520.14 868.91, 527.56 861.4 M509.32 894.58 C512.35 890.89, 516.8 885.74, 525.72 875.71 M509.32 894.58 C516.56 887.87, 521.86 878.94, 525.72 875.71" stroke="#ebfbee" stroke-width="1" fill="none"></path><path d="M32 0 C169.03 -0.75, 306.29 -0.99, 495 0 M32 0 C152.02 -1.16, 272.11 -1.21, 495 0 M495 0 C516.4 -0.36, 527.62 9.15, 527 32 M495 0 C516.07 1.33, 528.17 8.94, 527 32 M527 32 C525.25 320.64, 525.12 610.14, 527 864 M527 32 C525.86 327.5, 525.7 623.04, 527 864 M527 864 C525.89 884.01, 516.99 894.92, 495 896 M527 864 C525 883.21, 514.42 897.16, 495 896 M495 896 C328.19 897.2, 160.94 897.17, 32 896 M495 896 C395.93 894.88, 295.99 894.42, 32 896 M32 896 C9.45 895.4, -0.35 885.83, 0 864 M32 896 C10.16 896.87, 2.07 883.1, 0 864 M0 864 C2.25 694.29, 1.96 524.5, 0 32 M0 864 C-1.43 571.31, -0.87 278.65, 0 32 M0 32 C1.65 9.63, 11.57 -1.37, 32 0 M0 32 C-0.53 8.9, 11.91 -1.12, 32 0" stroke="#2f9e44" stroke-width="2" fill="none"></path></g><g stroke-linecap="round" transform="translate(10 10) rotate(0 183.5 128)"><path d="M7.86 8.16 C7.86 8.16, 7.86 8.16, 7.86 8.16 M7.86 8.16 C7.86 8.16, 7.86 8.16, 7.86 8.16 M1.43 27.75 C9.4 18.76, 15 11.91, 24.4 1.33 M1.43 27.75 C10.68 16.79, 19.2 7, 24.4 1.33 M0.91 40.54 C8.36 30.29, 17.61 21.5, 36.34 -0.21 M0.91 40.54 C11.55 27.08, 22.63 15.34, 36.34 -0.21 M1.04 52.58 C12.5 39.33, 25.62 27.22, 46.97 -0.25 M1.04 52.58 C14.89 37.54, 28.77 21.36, 46.97 -0.25 M1.18 64.62 C20.69 40.34, 42.65 14.89, 57.6 -0.28 M1.18 64.62 C17.4 46.13, 31.61 29.48, 57.6 -0.28 M1.31 76.67 C16.75 58.02, 30.61 42.31, 67.57 0.44 M1.31 76.67 C23.85 50.03, 46.87 21.34, 67.57 0.44 M0.79 89.46 C17.39 68.74, 36.11 51.44, 78.2 0.41 M0.79 89.46 C29.14 57.69, 56.63 24.35, 78.2 0.41 M0.92 101.5 C25.59 75.39, 44.64 49.41, 88.83 0.37 M0.92 101.5 C20.3 80.46, 37.82 58.79, 88.83 0.37 M1.05 113.54 C33.79 73.39, 66.03 38.78, 99.46 0.34 M1.05 113.54 C32.78 77.3, 64.17 39.54, 99.46 0.34 M1.19 125.58 C38.17 86.14, 69.98 43.53, 110.09 0.3 M1.19 125.58 C40.69 79.32, 80.45 33.66, 110.09 0.3 M0.66 138.38 C43.49 89.32, 83.16 42.65, 120.72 0.27 M0.66 138.38 C31.06 102.82, 62.73 66.87, 120.72 0.27 M0.8 150.42 C38.59 106.54, 73.57 64.4, 131.35 0.23 M0.8 150.42 C39.82 103.27, 81.3 58.13, 131.35 0.23 M0.93 162.46 C37.31 116.65, 74.78 74.69, 141.98 0.2 M0.93 162.46 C37.53 120.29, 74.37 77.97, 141.98 0.2 M1.06 174.5 C52.07 118.92, 101.3 62.17, 152.61 0.16 M1.06 174.5 C31.19 141.06, 60.27 105.46, 152.61 0.16 M0.54 187.3 C39.11 141.72, 79.58 96.04, 163.24 0.13 M0.54 187.3 C62.54 115.77, 124.74 42.49, 163.24 0.13 M0.67 199.34 C50.58 139.49, 101.07 83.55, 173.87 0.09 M0.67 199.34 C66.34 123.36, 131.9 48.01, 173.87 0.09 M0.81 211.38 C40.07 165.17, 76.56 121.29, 184.5 0.06 M0.81 211.38 C54.22 150.47, 107.04 89.79, 184.5 0.06 M0.28 224.17 C72.89 142.3, 144.49 58.84, 195.13 0.03 M0.28 224.17 C49.63 165.32, 100.11 107.1, 195.13 0.03 M1.73 234.71 C79.06 147.1, 156.07 55.47, 205.76 -0.01 M1.73 234.71 C73.3 151.93, 145.35 69.31, 205.76 -0.01 M4.49 243.73 C47.78 196.32, 91.07 146.26, 216.39 -0.04 M4.49 243.73 C51.78 186.82, 100.7 131.16, 216.39 -0.04 M10.52 248.98 C90.85 153.96, 174.52 59.59, 227.02 -0.08 M10.52 248.98 C53.22 199.24, 98.56 148.01, 227.02 -0.08 M17.22 253.47 C97.44 160.37, 178.91 67.3, 237.65 -0.11 M17.22 253.47 C95.28 161.43, 173.41 70.96, 237.65 -0.11 M25.88 255.7 C99.91 169.89, 173.97 85.66, 248.28 -0.15 M25.88 255.7 C109.74 158.17, 194.29 61.1, 248.28 -0.15 M35.85 256.42 C104.23 177.14, 172.28 100.58, 258.91 -0.18 M35.85 256.42 C100.94 180.58, 166.29 106.46, 258.91 -0.18 M46.48 256.39 C127.73 163.86, 209.76 70.16, 269.54 -0.22 M46.48 256.39 C103.75 188.22, 161.99 122.89, 269.54 -0.22 M57.11 256.35 C146.52 154.58, 232.25 53.17, 280.17 -0.25 M57.11 256.35 C135.17 166.75, 212.07 77.81, 280.17 -0.25 M67.74 256.32 C133 182.79, 197.07 109.11, 290.8 -0.28 M67.74 256.32 C139.12 173.49, 212.11 88.93, 290.8 -0.28 M78.37 256.28 C140.13 187.47, 198.43 118.77, 300.78 0.44 M78.37 256.28 C126.25 199.39, 175.72 141.89, 300.78 0.44 M89 256.25 C160.23 171.63, 233.98 89.04, 311.41 0.4 M89 256.25 C159.3 174.98, 228.62 95.74, 311.41 0.4 M99.63 256.21 C168.49 178.46, 238.55 97.44, 322.04 0.37 M99.63 256.21 C162.39 182.72, 227.52 108.38, 322.04 0.37 M110.26 256.18 C198.92 155.82, 285.32 57.3, 332.67 0.33 M110.26 256.18 C168.58 187.91, 228.57 120.13, 332.67 0.33 M120.9 256.14 C196.99 168.35, 272.55 81.07, 342.64 1.05 M120.9 256.14 C189.43 177.2, 257.46 99.42, 342.64 1.05 M131.53 256.11 C176.52 205.26, 220.69 153.77, 351.3 3.28 M131.53 256.11 C189.82 190.58, 247.13 124.41, 351.3 3.28 M142.16 256.07 C216.76 169.92, 293.38 81.49, 358 7.78 M142.16 256.07 C204.4 186.18, 267.71 113.94, 358 7.78 M152.79 256.04 C229.41 163.39, 307.7 75.89, 363.38 13.78 M152.79 256.04 C215.37 184.34, 277.7 111.75, 363.38 13.78 M163.42 256.01 C234.05 172.59, 303.69 90.73, 365.48 23.56 M163.42 256.01 C211.98 200.24, 261.8 142.22, 365.48 23.56 M174.05 255.97 C234.75 187.21, 294.66 117.54, 366.93 34.09 M174.05 255.97 C214.75 210.05, 253.72 164.62, 366.93 34.09 M184.68 255.94 C244.63 190.57, 302.89 122.7, 367.06 46.13 M184.68 255.94 C231.04 200.9, 279.61 146.69, 367.06 46.13 M195.31 255.9 C251.51 189.04, 309.55 126.26, 367.19 58.17 M195.31 255.9 C256.32 186.12, 316.65 118.09, 367.19 58.17 M205.94 255.87 C249.67 202.53, 294.9 152.43, 367.33 70.21 M205.94 255.87 C266.93 185.41, 327.77 114.83, 367.33 70.21 M216.57 255.83 C269.37 197.11, 319.12 140.34, 367.46 82.25 M216.57 255.83 C260.74 202.54, 306.47 151.27, 367.46 82.25 M227.2 255.8 C255.84 221.35, 283.69 189.13, 366.94 95.05 M227.2 255.8 C276.12 199.69, 325.27 142.91, 366.94 95.05 M237.83 255.76 C283.16 204.09, 326.22 153.09, 367.07 107.09 M237.83 255.76 C287.41 201.51, 334.81 146.03, 367.07 107.09 M247.8 256.48 C284.62 213.28, 323.34 172.31, 367.2 119.13 M247.8 256.48 C280.35 220.09, 313.8 182.61, 367.2 119.13 M258.43 256.45 C295.85 213.2, 335.77 169.97, 367.34 131.17 M258.43 256.45 C289.24 220.04, 322.18 182.94, 367.34 131.17 M269.06 256.42 C304.73 213.75, 338.97 174.41, 367.47 143.21 M269.06 256.42 C300.77 217.81, 334.47 180.14, 367.47 143.21 M279.69 256.38 C300.92 229.81, 325.96 204.89, 366.95 156 M279.69 256.38 C310.72 221.33, 340.3 187.61, 366.95 156 M290.32 256.35 C318.44 224.59, 347.04 190.18, 367.08 168.05 M290.32 256.35 C312.68 230.4, 335.69 204.15, 367.08 168.05 M300.95 256.31 C325.91 225.54, 352.35 197.2, 367.21 180.09 M300.95 256.31 C326.97 225.62, 352.52 196.32, 367.21 180.09 M311.58 256.28 C327.81 236.07, 347.25 215.85, 367.35 192.13 M311.58 256.28 C332.92 230.09, 356.95 205.32, 367.35 192.13 M322.21 256.24 C334.93 238.4, 351.98 224.45, 367.48 204.17 M322.21 256.24 C334.35 242.26, 345.22 227.87, 367.48 204.17 M332.84 256.21 C346.15 241.94, 360.22 223.89, 366.96 216.96 M332.84 256.21 C340.66 247.02, 349.99 236.77, 366.96 216.96 M344.78 254.66 C351.38 249.77, 355.97 241.6, 367.09 229 M344.78 254.66 C353.5 244.58, 363.67 233.88, 367.09 229" stroke="#fff4e6" stroke-width="1" fill="none"></path><path d="M32 0 C144.98 0.89, 258.01 1.98, 335 0 M32 0 C122.59 0.86, 212.92 1.9, 335 0 M335 0 C356.04 1.33, 366.42 11.2, 367 32 M335 0 C357.91 -0.94, 365.42 10.3, 367 32 M367 32 C368.87 76.22, 366.2 121.82, 367 224 M367 32 C368.55 93.9, 369.08 156.74, 367 224 M367 224 C367.24 243.84, 354.79 257.73, 335 256 M367 224 C365.44 244.04, 357.81 256.59, 335 256 M335 256 C248.58 258.05, 162.11 258.33, 32 256 M335 256 C251.67 254.6, 167.54 254.48, 32 256 M32 256 C8.92 257.98, -1.88 246.28, 0 224 M32 256 C9.03 255.92, -1.18 246.77, 0 224 M0 224 C-0.62 166.37, 0.04 111.3, 0 32 M0 224 C0.86 147.24, 1.61 71.95, 0 32 M0 32 C-1.35 11.17, 8.86 0.89, 32 0 M0 32 C-0.4 10.92, 9.16 -2.18, 32 0" stroke="#f08c00" stroke-width="2" fill="none"></path></g><g stroke-linecap="round" transform="translate(10 282) rotate(0 184 312.5)"><path d="M7.86 8.16 C7.86 8.16, 7.86 8.16, 7.86 8.16 M7.86 8.16 C7.86 8.16, 7.86 8.16, 7.86 8.16 M1.43 27.75 C4.58 21.45, 11.18 18.2, 24.4 1.33 M1.43 27.75 C10.13 18.3, 17.85 10.55, 24.4 1.33 M0.26 41.3 C9.94 29.12, 25.6 13.01, 36.34 -0.21 M0.26 41.3 C14.14 26.85, 26.76 11.02, 36.34 -0.21 M0.39 53.34 C16.13 38.74, 27.8 19.54, 46.97 -0.25 M0.39 53.34 C14.07 37.89, 27.31 22.79, 46.97 -0.25 M0.52 65.38 C17.69 49.19, 31.32 28.66, 57.6 -0.28 M0.52 65.38 C17.36 45.35, 36.31 24.94, 57.6 -0.28 M0 78.17 C20.68 52.27, 44.69 29.18, 67.57 0.44 M0 78.17 C25.13 46.81, 53.62 15.78, 67.57 0.44 M0.13 90.22 C29.06 56.4, 57.54 21.96, 78.2 0.41 M0.13 90.22 C25.22 62.1, 50.18 31.19, 78.2 0.41 M0.26 102.26 C25.31 74.15, 52.19 44.38, 88.83 0.37 M0.26 102.26 C33.08 64.48, 64.92 26.58, 88.83 0.37 M0.4 114.3 C26.98 84.11, 48.86 57.6, 99.46 0.34 M0.4 114.3 C38.17 68.64, 75.81 25.77, 99.46 0.34 M0.53 126.34 C39.12 83.26, 75.23 42.87, 110.09 0.3 M0.53 126.34 C25.91 94.71, 51.49 65.47, 110.09 0.3 M0.01 139.13 C43.84 90.48, 83.62 41.36, 120.72 0.27 M0.01 139.13 C39.28 93.86, 77.4 48.88, 120.72 0.27 M0.14 151.17 C44.53 98.56, 90.16 47.1, 131.35 0.23 M0.14 151.17 C28.57 119.94, 57.63 88, 131.35 0.23 M0.27 163.22 C29.98 128.38, 62.68 88.13, 141.98 0.2 M0.27 163.22 C46.8 108.95, 92.35 55.87, 141.98 0.2 M0.41 175.26 C48 120.82, 93.15 66.08, 152.61 0.16 M0.41 175.26 C33.95 138.25, 65.93 100.01, 152.61 0.16 M0.54 187.3 C54.7 124.93, 106.43 64.35, 163.24 0.13 M0.54 187.3 C38.01 144.8, 74.53 102.34, 163.24 0.13 M0.02 200.09 C64.52 126.32, 129.43 52.66, 173.87 0.09 M0.02 200.09 C63.15 129.29, 127 56.82, 173.87 0.09 M0.15 212.13 C59.79 144.22, 115.84 75.76, 184.5 0.06 M0.15 212.13 C73.04 131.1, 143.74 48.95, 184.5 0.06 M0.28 224.17 C69.34 145.2, 137.52 64.99, 195.13 0.03 M0.28 224.17 C49.89 166.42, 99.82 109.67, 195.13 0.03 M0.42 236.22 C41.87 187.87, 85.1 139.83, 205.76 -0.01 M0.42 236.22 C47.78 180.26, 97.56 124.5, 205.76 -0.01 M-0.11 249.01 C56.68 183.74, 115.88 115.25, 216.39 -0.04 M-0.11 249.01 C71.74 167.41, 141.84 85.68, 216.39 -0.04 M0.03 261.05 C51.06 205.26, 100.5 145.59, 227.02 -0.08 M0.03 261.05 C80.37 166.06, 162.95 72.71, 227.02 -0.08 M0.16 273.09 C92.15 167.38, 182.75 61.36, 237.65 -0.11 M0.16 273.09 C62.1 198.55, 125.69 124.82, 237.65 -0.11 M0.29 285.13 C80.21 193.14, 160 101.92, 248.28 -0.15 M0.29 285.13 C90.84 178.41, 182.21 73.18, 248.28 -0.15 M0.43 297.17 C97.17 186.44, 192.38 77.41, 258.91 -0.18 M0.43 297.17 C103.29 179.61, 206.33 61.62, 258.91 -0.18 M-0.1 309.97 C74.85 221.38, 151.37 133.97, 269.54 -0.22 M-0.1 309.97 C63.23 237.04, 126.3 163.53, 269.54 -0.22 M0.04 322.01 C98.84 209.81, 196.4 96.44, 280.17 -0.25 M0.04 322.01 C89.21 217.75, 178.76 114.52, 280.17 -0.25 M0.17 334.05 C64.96 260.98, 128.51 188.3, 290.8 -0.28 M0.17 334.05 C109.47 208.43, 219.35 81.89, 290.8 -0.28 M0.3 346.09 C71.79 265.92, 142.77 182.69, 300.78 0.44 M0.3 346.09 C74.31 264.39, 146.56 180.87, 300.78 0.44 M0.44 358.13 C82.47 263.75, 163.47 168.89, 311.41 0.4 M0.44 358.13 C114 226.4, 228.09 95.15, 311.41 0.4 M-0.09 370.93 C69.35 291.63, 139.17 210.25, 322.04 0.37 M-0.09 370.93 C84.23 272.33, 169.15 174.4, 322.04 0.37 M0.05 382.97 C92.88 277.32, 184.93 169.84, 332.67 0.33 M0.05 382.97 C72.58 300.78, 144.04 218.88, 332.67 0.33 M0.18 395.01 C86.67 296.41, 171.78 196.9, 342.64 1.05 M0.18 395.01 C100.57 278.51, 200.73 163.41, 342.64 1.05 M0.31 407.05 C125.85 263.27, 248.98 120.03, 351.3 3.28 M0.31 407.05 C102.26 290.18, 203.82 173.48, 351.3 3.28 M0.45 419.09 C135.42 263.67, 272.24 107.05, 358.65 7.02 M0.45 419.09 C119.49 282.95, 237.84 146.83, 358.65 7.02 M-0.08 431.89 C111.09 303.22, 222.05 176.15, 364.04 13.02 M-0.08 431.89 C144.08 263.85, 289.9 96.18, 364.04 13.02 M0.06 443.93 C80.79 350.68, 160.52 257.96, 366.79 22.05 M0.06 443.93 C134.43 287.94, 269.98 131.84, 366.79 22.05 M0.19 455.97 C137.69 300.07, 272.26 143.06, 368.24 32.58 M0.19 455.97 C114.55 326.1, 228.23 195.41, 368.24 32.58 M0.32 468.01 C94.92 357.35, 192.19 245.93, 368.37 44.62 M0.32 468.01 C116.94 334.16, 232.43 201.12, 368.37 44.62 M0.46 480.05 C115.47 345.75, 232.93 211.36, 368.51 56.66 M0.46 480.05 C83.26 383.83, 166.89 287.88, 368.51 56.66 M-0.07 492.85 C139.77 333.82, 279.47 174.53, 368.64 68.7 M-0.07 492.85 C96.66 382.12, 191.7 272.64, 368.64 68.7 M0.07 504.89 C125.37 357.57, 251.84 212.66, 368.12 81.5 M0.07 504.89 C115.89 372.4, 230.63 241.65, 368.12 81.5 M0.2 516.93 C113.25 385.93, 226.71 255.8, 368.25 93.54 M0.2 516.93 C145.64 347.73, 291.53 178.98, 368.25 93.54 M0.33 528.97 C136.4 371.08, 273 213.58, 368.38 105.58 M0.33 528.97 C133.74 372.61, 268.7 217.05, 368.38 105.58 M0.47 541.01 C140.21 380.92, 279.02 220.51, 368.51 117.62 M0.47 541.01 C119.96 404.26, 238.64 267.58, 368.51 117.62 M-0.06 553.81 C126.97 406.98, 255.39 260.36, 368.65 129.66 M-0.06 553.81 C130.14 405.1, 258.61 256.94, 368.65 129.66 M0.08 565.85 C142.18 402.34, 284.92 236.49, 368.13 142.45 M0.08 565.85 C120.74 427.32, 241.76 287.86, 368.13 142.45 M0.21 577.89 C126.86 432.94, 253.9 286.88, 368.26 154.5 M0.21 577.89 C96.77 464.51, 194.55 352.54, 368.26 154.5 M0.34 589.93 C115 459.47, 229.68 326.63, 368.39 166.54 M0.34 589.93 C113.7 460.32, 225.62 331.88, 368.39 166.54 M1.13 601.21 C98.77 488.11, 195.62 376.58, 368.52 178.58 M1.13 601.21 C96.87 491.54, 192.27 381.09, 368.52 178.58 M3.89 610.24 C148.41 442.56, 294.98 275.65, 368.66 190.62 M3.89 610.24 C89.97 509.67, 176.38 410.9, 368.66 190.62 M8.61 616.99 C128.29 478.29, 249.69 338.04, 368.13 203.41 M8.61 616.99 C131.4 476.06, 253.36 336.17, 368.13 203.41 M14.65 622.24 C112.16 507.62, 211.41 392.98, 368.27 215.45 M14.65 622.24 C125.49 495.87, 235.66 368.9, 368.27 215.45 M23.31 624.47 C98.85 539.28, 173.37 453.55, 368.4 227.5 M23.31 624.47 C110.42 526.54, 196.78 427.65, 368.4 227.5 M33.29 625.19 C118.98 524.3, 206.55 424.7, 368.53 239.54 M33.29 625.19 C106.73 540.53, 180.99 456.38, 368.53 239.54 M43.92 625.16 C134 519.91, 222.95 415.88, 368.67 251.58 M43.92 625.16 C170.15 480.37, 296.33 335.35, 368.67 251.58 M54.55 625.12 C122.89 545.6, 190.5 465.8, 368.14 264.37 M54.55 625.12 C130.34 537.39, 206.37 450.67, 368.14 264.37 M65.18 625.09 C166.74 509.17, 268.25 392.5, 368.28 276.41 M65.18 625.09 C157.58 521.04, 248.47 415.76, 368.28 276.41 M75.81 625.05 C167.43 519.93, 261.21 413.37, 368.41 288.45 M75.81 625.05 C180.71 504.29, 284.73 385.03, 368.41 288.45 M86.44 625.02 C175.73 521.78, 264.21 419.61, 368.54 300.5 M86.44 625.02 C192.99 503.01, 299.52 380.18, 368.54 300.5 M97.07 624.99 C174.63 534.27, 251.58 444.88, 368.68 312.54 M97.07 624.99 C190.03 514.85, 285.16 405.04, 368.68 312.54 M107.7 624.95 C207.18 510.19, 308.33 393.19, 368.15 325.33 M107.7 624.95 C204.51 513.39, 300.02 403.16, 368.15 325.33 M118.33 624.92 C205.7 527.74, 288.93 429.89, 368.29 337.37 M118.33 624.92 C191.33 538.97, 265.75 453.53, 368.29 337.37 M128.96 624.88 C183.51 561.85, 238.66 497.21, 368.42 349.41 M128.96 624.88 C189.61 554.79, 252.2 482.96, 368.42 349.41 M139.59 624.85 C199.26 555.94, 259.04 487.97, 368.55 361.45 M139.59 624.85 C203.64 551.58, 268.03 478.83, 368.55 361.45 M150.22 624.81 C229.61 532.92, 309.06 442.79, 368.69 373.49 M150.22 624.81 C234.99 525.24, 320.74 427.59, 368.69 373.49 M160.85 624.78 C227.74 548.34, 292.8 470.57, 368.16 386.29 M160.85 624.78 C216.16 559.51, 271.2 496.1, 368.16 386.29 M171.48 624.74 C215.72 572.98, 259.63 524.04, 368.3 398.33 M171.48 624.74 C239.84 547.44, 307.75 468.43, 368.3 398.33 M182.11 624.71 C247.01 546.75, 315.5 469.66, 368.43 410.37 M182.11 624.71 C227.24 573, 272.52 521.31, 368.43 410.37 M192.08 625.43 C239.9 568.59, 287.4 513.17, 368.56 422.41 M192.08 625.43 C238.19 570.06, 285.22 514.92, 368.56 422.41 M202.71 625.4 C249.89 568.85, 298.62 514.99, 368.7 434.45 M202.71 625.4 C246.35 572.72, 291.1 522.16, 368.7 434.45 M213.34 625.36 C262.27 566.91, 310.45 512.59, 368.17 447.25 M213.34 625.36 C266.27 564.15, 318.83 502.69, 368.17 447.25 M223.97 625.33 C252.06 590.39, 283.85 556.23, 368.31 459.29 M223.97 625.33 C256.96 585.59, 291.51 547.83, 368.31 459.29 M234.6 625.29 C283.85 569.49, 334.9 512.03, 368.44 471.33 M234.6 625.29 C272.79 581.27, 311.43 537.59, 368.44 471.33 M245.23 625.26 C279.83 584.48, 314.12 546.73, 368.57 483.37 M245.23 625.26 C279.54 584.85, 313.43 544.54, 368.57 483.37 M255.86 625.22 C297.03 578.7, 337.31 530.43, 368.71 495.41 M255.86 625.22 C289.55 586.29, 324.28 547.29, 368.71 495.41 M266.49 625.19 C295.96 595.38, 321.69 562.46, 368.18 508.21 M266.49 625.19 C287.82 602.99, 309.36 577.84, 368.18 508.21 M277.12 625.15 C305.14 592.26, 331.21 563.4, 368.32 520.25 M277.12 625.15 C304.13 592.84, 333.9 559.51, 368.32 520.25 M287.75 625.12 C317.47 589.86, 347.67 555.02, 368.45 532.29 M287.75 625.12 C309.43 602.05, 328.74 577.57, 368.45 532.29 M298.38 625.09 C316.63 603.36, 333.29 582.45, 368.58 544.33 M298.38 625.09 C318.5 600.96, 338.5 578.09, 368.58 544.33 M309.01 625.05 C321.67 609.88, 333.57 595.23, 368.72 556.37 M309.01 625.05 C327.31 604.93, 344.61 582.83, 368.72 556.37 M319.64 625.02 C337.99 603.83, 355 586.08, 368.19 569.17 M319.64 625.02 C336.74 603.91, 354.22 584.95, 368.19 569.17 M330.27 624.98 C341.62 613.14, 349.17 603.04, 368.33 581.21 M330.27 624.98 C342.74 611.56, 355.01 596.92, 368.33 581.21 M340.9 624.95 C347.51 617.77, 353.7 606.42, 368.46 593.25 M340.9 624.95 C350.37 614.84, 358.55 604.99, 368.46 593.25 M354.81 621.14 C358.92 615.8, 365.02 612.13, 366.62 607.55 M354.81 621.14 C356.92 618.67, 359.82 613.77, 366.62 607.55" stroke="#e7f5ff" stroke-width="1" fill="none"></path><path d="M32 0 C138.67 -1, 242.77 -0.23, 336 0 M32 0 C128.61 1.11, 225.84 0.89, 336 0 M336 0 C357.11 0.63, 367.68 11.61, 368 32 M336 0 C359.57 2.08, 369.96 9.24, 368 32 M368 32 C365.84 186.99, 365.83 341.8, 368 593 M368 32 C367.97 224.93, 368.39 417.5, 368 593 M368 593 C366.74 613.45, 359.27 624.34, 336 625 M368 593 C369.27 614.72, 355.75 626.51, 336 625 M336 625 C261.48 625.07, 185.4 626.36, 32 625 M336 625 C258.82 623.3, 182.39 624.47, 32 625 M32 625 C9.3 623.87, 1.95 615.65, 0 593 M32 625 C8.61 623.15, -1.68 614.84, 0 593 M0 593 C0.84 456.13, 0.34 318.16, 0 32 M0 593 C0.47 437.47, 0.64 282.37, 0 32 M0 32 C1.5 9.53, 8.99 -1.04, 32 0 M0 32 C-0.53 11.84, 11.42 -0.09, 32 0" stroke="#1971c2" stroke-width="2" fill="none"></path></g><g stroke-linecap="round" transform="translate(112.41042137145996 89.59166717529297) rotate(0 87.4000015258789 22)"><path d="M11 0 C67.99 -1.68, 129.24 -0.67, 163.8 0 M11 0 C48.24 -1.54, 84.05 -0.4, 163.8 0 M163.8 0 C170.77 1.6, 173.94 1.73, 174.8 11 M163.8 0 C172.61 -1.17, 173.25 3.97, 174.8 11 M174.8 11 C176.97 16.5, 174.49 20.8, 174.8 33 M174.8 11 C175.11 17.14, 175.16 22.78, 174.8 33 M174.8 33 C174.3 38.36, 171.46 44.17, 163.8 44 M174.8 33 C176.03 41.81, 171.89 43.8, 163.8 44 M163.8 44 C105.33 45.97, 50.25 45.18, 11 44 M163.8 44 C112.57 43.73, 61.57 44.62, 11 44 M11 44 C2.84 43.37, -1.78 41.1, 0 33 M11 44 C3.84 45.05, -0.21 40.63, 0 33 M0 33 C1.69 29.23, -0.73 22.32, 0 11 M0 33 C0.55 28.48, 0.1 21.77, 0 11 M0 11 C-0.11 3.49, 4.36 -0.94, 11 0 M0 11 C0.29 5.86, 4.69 0.27, 11 0" stroke="#1e1e1e" stroke-width="2" fill="none"></path></g><g stroke-linecap="round" transform="translate(123.31875419616699 316.59166717529297) rotate(0 73.49166870117188 22)"><path d="M11 0 C49.53 0.37, 84.18 -0.92, 135.98 0 M11 0 C55.06 1.34, 98 1.8, 135.98 0 M135.98 0 C142.46 -1.94, 148.27 2.65, 146.98 11 M135.98 0 C141.77 0.3, 145.41 5.64, 146.98 11 M146.98 11 C146.7 18.84, 146.62 25.8, 146.98 33 M146.98 11 C147.64 15.87, 146.84 20.07, 146.98 33 M146.98 33 C147.31 40.51, 144.38 45.29, 135.98 44 M146.98 33 C147.74 40.13, 145.07 44.53, 135.98 44 M135.98 44 C89.5 44.34, 40.81 44.8, 11 44 M135.98 44 C100.25 45, 65.81 43.75, 11 44 M11 44 C1.88 44.77, 0.15 41.25, 0 33 M11 44 C3.46 44.3, -1.99 42.37, 0 33 M0 33 C-0.74 24.25, -1.5 18.6, 0 11 M0 33 C0.03 27.63, -0.19 23.93, 0 11 M0 11 C0.69 2.73, 3.92 1.91, 11 0 M0 11 C1.02 3.93, 3.45 -1.44, 11 0" stroke="#1e1e1e" stroke-width="2" fill="none"></path></g><g stroke-linecap="round" transform="translate(60.56875419616699 451.5) rotate(0 133.24166870117188 22)"><path d="M11 0 C62.32 -0.93, 116.52 2.29, 255.48 0 M11 0 C64.72 -0.03, 118.39 -1.49, 255.48 0 M255.48 0 C264.1 -1.02, 265.14 3.93, 266.48 11 M255.48 0 C261.24 1.97, 268.19 5.94, 266.48 11 M266.48 11 C265.85 16.39, 265 26.08, 266.48 33 M266.48 11 C266.36 17, 266.77 25.05, 266.48 33 M266.48 33 C267.55 41.62, 263.47 43.83, 255.48 44 M266.48 33 C268.24 40.86, 264.73 42.87, 255.48 44 M255.48 44 C174.18 44.21, 91.49 43.02, 11 44 M255.48 44 C180.58 45.63, 105.61 46.21, 11 44 M11 44 C3.81 44.92, -0.18 40.59, 0 33 M11 44 C1.67 46.03, 0.89 42.5, 0 33 M0 33 C-1.24 25.88, -1.86 18.98, 0 11 M0 33 C-0.09 24.87, 0.31 16.45, 0 11 M0 11 C0.25 5.57, 4.56 0.23, 11 0 M0 11 C-0.21 2.22, 5 -0.06, 11 0" stroke="#1e1e1e" stroke-width="2" fill="none"></path></g><g stroke-linecap="round" transform="translate(89.7437572479248 613.408332824707) rotate(0 104.06666564941406 22)"><path d="M11 0 C61.23 3.76, 107.91 2.79, 197.13 0 M11 0 C72.78 -2.46, 136.05 -2, 197.13 0 M197.13 0 C203.12 0.26, 206.76 5.38, 208.13 11 M197.13 0 C206.17 2.27, 208.61 3.09, 208.13 11 M208.13 11 C206.64 18.15, 208.42 24.44, 208.13 33 M208.13 11 C208.24 17.35, 208.61 24.18, 208.13 33 M208.13 33 C208.79 40.16, 205.99 44.46, 197.13 44 M208.13 33 C210.05 39.2, 205.26 45.64, 197.13 44 M197.13 44 C141.71 43.26, 87.21 42.64, 11 44 M197.13 44 C122.97 43.79, 50.67 43.87, 11 44 M11 44 C3.49 44.26, -1.73 42.1, 0 33 M11 44 C4.55 46.17, 1.07 39.72, 0 33 M0 33 C-1.77 29.04, 1.45 22.97, 0 11 M0 33 C0.36 27.87, 0.14 24.64, 0 11 M0 11 C0.89 3.9, 3.48 -1.26, 11 0 M0 11 C1.33 3.61, 1.43 -1.09, 11 0" stroke="#1e1e1e" stroke-width="2" fill="none"></path></g><g stroke-linecap="round" transform="translate(38.31875419616699 778.408332824707) rotate(0 155.49166870117188 22)"><path d="M11 0 C67.77 -1.36, 127.45 -2.34, 299.98 0 M11 0 C121.36 1.72, 230.25 2.2, 299.98 0 M299.98 0 C305.95 1.71, 312.47 5.64, 310.98 11 M299.98 0 C307.79 -0.58, 310.53 3, 310.98 11 M310.98 11 C311.17 16.87, 310.52 20.05, 310.98 33 M310.98 11 C311.55 16.08, 311.35 19.78, 310.98 33 M310.98 33 C312.51 40.79, 308.98 43.02, 299.98 44 M310.98 33 C311.78 41.97, 307.21 44.73, 299.98 44 M299.98 44 C208.09 41.54, 117.45 42.2, 11 44 M299.98 44 C222.51 45.18, 144.85 44.93, 11 44 M11 44 C1.93 45.77, 0.77 42.22, 0 33 M11 44 C4.73 43.38, -1.49 38.84, 0 33 M0 33 C1.52 26.17, -1.55 18.59, 0 11 M0 33 C0.05 27.55, 0.37 20.3, 0 11 M0 11 C-0.19 2.41, 4.82 -0.05, 11 0 M0 11 C-2.23 2.58, 4.48 1.09, 11 0" stroke="#1e1e1e" stroke-width="2" fill="none"></path></g><g stroke-linecap="round" transform="translate(551.7687549591064 31.59166717529297) rotate(0 83 22)"><path d="M11 0 C68.62 -1.04, 126.47 -1.54, 155 0 M11 0 C39.57 0.86, 68.8 1.59, 155 0 M155 0 C163.82 1.98, 166.41 3.16, 166 11 M155 0 C161.88 -0.66, 164.09 2.02, 166 11 M166 11 C165.73 18.18, 164.07 26.68, 166 33 M166 11 C166.45 17.7, 166.88 24.81, 166 33 M166 33 C167.67 39.35, 163.03 45.42, 155 44 M166 33 C165.9 41.06, 162.75 43.52, 155 44 M155 44 C121.47 41.95, 83.57 40.99, 11 44 M155 44 C106.2 44.79, 56.71 45.54, 11 44 M11 44 C4.44 45.88, 0.93 39.8, 0 33 M11 44 C2.17 42.51, 0.57 38.13, 0 33 M0 33 C-1.91 24.95, -0.32 17.81, 0 11 M0 33 C0.42 27.55, -0.12 21.24, 0 11 M0 11 C1.16 3.61, 1.72 -0.95, 11 0 M0 11 C0.81 4.75, 1.86 -1.05, 11 0" stroke="#1e1e1e" stroke-width="2" fill="none"></path></g><g stroke-linecap="round" transform="translate(567.0604190826416 154.59166717529297) rotate(0 67.70833587646484 22)"><path d="M11 0 C51.97 -0.65, 87.79 1.49, 124.42 0 M11 0 C38.57 0.71, 68.25 0.84, 124.42 0 M124.42 0 C132.16 -0.5, 135.03 3.09, 135.42 11 M124.42 0 C129.84 -1.64, 136.54 4.07, 135.42 11 M135.42 11 C133.41 19.13, 135.56 27.68, 135.42 33 M135.42 11 C136.25 19.25, 136.32 26.54, 135.42 33 M135.42 33 C136.11 41.76, 131.66 44.63, 124.42 44 M135.42 33 C135.84 39.85, 130.5 44.11, 124.42 44 M124.42 44 C99.41 41.75, 76.45 43.68, 11 44 M124.42 44 C84.33 45.03, 46.36 45.09, 11 44 M11 44 C4.59 43.46, -1.3 39.04, 0 33 M11 44 C4.24 41.8, 1.4 41.84, 0 33 M0 33 C0.02 26.74, -0.74 19.35, 0 11 M0 33 C-0.19 23.67, 0.48 15.58, 0 11 M0 11 C-1.94 2.72, 4.37 0.94, 11 0 M0 11 C-1.81 2.62, 3.34 0.56, 11 0" stroke="#1e1e1e" stroke-width="2" fill="none"></path></g><g stroke-linecap="round" transform="translate(552.8604221343994 289.59166717529297) rotate(0 82.40833282470703 82.40833282470703)"><path d="M83 0 C104.79 25.03, 128.77 45.79, 164.82 83 M83 0 C108.8 26.28, 133.89 51.04, 164.82 83 M164.82 83 C140.2 106.25, 119.03 129.31, 83 164.82 M164.82 83 C141.48 105.58, 118.54 129.44, 83 164.82 M83 164.82 C55.91 139.89, 26.84 111.68, 0 83 M83 164.82 C52.41 134.5, 20.88 104.4, 0 83 M0 83 C16.42 63.73, 35.65 47.82, 83 0 M0 83 C27.91 55.07, 57.87 26.43, 83 0" stroke="#1e1e1e" stroke-width="2" fill="none"></path></g><g stroke-linecap="round" transform="translate(489.5104236602783 734.408332824707) rotate(0 158.25833129882812 22)"><path d="M11 0 C85.96 -2.41, 162.63 -2.42, 305.52 0 M11 0 C124.72 -2.35, 237.99 -2.38, 305.52 0 M305.52 0 C311.19 -1.43, 317.49 4.01, 316.52 11 M305.52 0 C314.11 -0.35, 315.95 1.4, 316.52 11 M316.52 11 C317.82 18.62, 316.36 26.45, 316.52 33 M316.52 11 C317.05 18.82, 316.66 25.53, 316.52 33 M316.52 33 C316.88 39.91, 311.77 44.1, 305.52 44 M316.52 33 C314.56 42.49, 311.9 43.27, 305.52 44 M305.52 44 C244.11 44.03, 181.53 42.87, 11 44 M305.52 44 C191.49 45.86, 76.29 45.58, 11 44 M11 44 C4.17 42.08, 1.22 41.64, 0 33 M11 44 C4.03 41.97, -0.13 40.13, 0 33 M0 33 C2.01 26.53, 0.33 18.09, 0 11 M0 33 C-1.1 27.31, 0.23 23.03, 0 11 M0 11 C-1.57 2.75, 3.38 0.49, 11 0 M0 11 C-1.92 4.38, 5.2 0.43, 11 0" stroke="#1e1e1e" stroke-width="2" fill="none"></path></g><g stroke-linecap="round" transform="translate(586.1312580108643 517.408332824707) rotate(0 158.27499389648438 22)"><path d="M11 0 C118.51 0.46, 226.91 2.57, 305.55 0 M11 0 C128.35 0.34, 245.38 0.02, 305.55 0 M305.55 0 C313.86 0.35, 317.64 3.36, 316.55 11 M305.55 0 C312.31 -2.26, 316.93 3.87, 316.55 11 M316.55 11 C316.52 20.3, 317.15 28.21, 316.55 33 M316.55 11 C316.58 16.84, 316.81 21.83, 316.55 33 M316.55 33 C315.47 40.43, 311.18 45.87, 305.55 44 M316.55 33 C315.6 39.6, 310.83 44.88, 305.55 44 M305.55 44 C215.2 42.51, 125.77 44.37, 11 44 M305.55 44 C188.96 42.93, 73.52 42.7, 11 44 M11 44 C4.88 45.31, 0.32 38.57, 0 33 M11 44 C3.54 43.8, 0.79 39.25, 0 33 M0 33 C0.02 25.94, -1.47 20.41, 0 11 M0 33 C0.57 26.93, -0.57 19.46, 0 11 M0 11 C-0.28 4.15, 2 0.62, 11 0 M0 11 C1.54 4.09, 2.7 1.11, 11 0" stroke="#1e1e1e" stroke-width="2" fill="none"></path></g><g stroke-linecap="round" transform="translate(657.0062503814697 640.408332824707) rotate(0 87.4000015258789 22)"><path d="M11 0 C48.26 2.53, 84.08 1.46, 163.8 0 M11 0 C52.16 -0.27, 95.48 0.61, 163.8 0 M163.8 0 C172.23 -0.3, 174.3 1.7, 174.8 11 M163.8 0 C171.51 0.2, 176.03 5.15, 174.8 11 M174.8 11 C175.24 19.99, 173.8 26.34, 174.8 33 M174.8 11 C174.97 18.96, 174.25 27.38, 174.8 33 M174.8 33 C173.1 42.21, 170.31 43.37, 163.8 44 M174.8 33 C172.75 41.21, 171.3 45.05, 163.8 44 M163.8 44 C121.11 43.44, 76.77 43.6, 11 44 M163.8 44 C122.31 42.05, 80.93 43.66, 11 44 M11 44 C3.98 42.24, -0.11 40.16, 0 33 M11 44 C4.46 42.92, 0.29 42.53, 0 33 M0 33 C-1.28 26.58, -0.08 15.9, 0 11 M0 33 C-0.87 26.98, -0.22 22.12, 0 11 M0 11 C-1.67 4.29, 5 0.37, 11 0 M0 11 C-0.96 4.78, 5.6 1.06, 11 0" stroke="#1e1e1e" stroke-width="2" fill="none"></path></g><g mask="url(#mask-Z2iwug4vdYkGXurUIrvQZ)" stroke-linecap="round"><g transform="translate(199.49551406963974 134.59166717529297) rotate(0 -1.191032600137305 90.5)"><path d="M0.89 1.19 C0.67 31.13, -1.55 150.79, -2.14 180.7 M-0.1 0.76 C-0.39 31.41, -2.39 151.91, -2.95 182.08" stroke="#1e1e1e" stroke-width="2" fill="none"></path></g><g transform="translate(199.49551406963974 134.59166717529297) rotate(0 -1.191032600137305 90.5)"><path d="M-11.09 158.44 C-7.03 164.26, -7.63 168.93, -2.95 182.08 M-11.09 158.44 C-8.59 165.08, -6.33 171.16, -2.95 182.08" stroke="#1e1e1e" stroke-width="2" fill="none"></path></g><g transform="translate(199.49551406963974 134.59166717529297) rotate(0 -1.191032600137305 90.5)"><path d="M6 158.74 C6.11 164.62, 1.55 169.22, -2.95 182.08 M6 158.74 C3.87 165.17, 1.5 171.18, -2.95 182.08" stroke="#1e1e1e" stroke-width="2" fill="none"></path></g></g><mask id="mask-Z2iwug4vdYkGXurUIrvQZ"><rect x="0" y="0" fill="#fff" width="301.87757926991435" height="415.59166717529297"></rect><rect x="107.32948299538134" y="212.59166717529297" fill="#000" width="181.9499969482422" height="25" opacity="1"></rect></mask><g stroke-linecap="round"><g transform="translate(196.30324995878595 361.59166717529297) rotate(0 -0.9901118572296355 44.454166412353516)"><path d="M0.25 -0.3 C-0.27 14.26, -1.68 73.84, -2.21 88.56 M-1.08 -1.51 C-1.86 13.74, -3.36 74.85, -3.29 89.92" stroke="#1e1e1e" stroke-width="2" fill="none"></path></g><g transform="translate(196.30324995878595 361.59166717529297) rotate(0 -0.9901118572296355 44.454166412353516)"><path d="M-11.54 66.32 C-8.72 74.74, -5.71 82.3, -3.29 89.92 M-11.54 66.32 C-8.99 71.55, -7.9 76.1, -3.29 89.92" stroke="#1e1e1e" stroke-width="2" fill="none"></path></g><g transform="translate(196.30324995878595 361.59166717529297) rotate(0 -0.9901118572296355 44.454166412353516)"><path d="M5.56 66.53 C1.98 74.91, -1.41 82.39, -3.29 89.92 M5.56 66.53 C4.2 71.74, 1.38 76.25, -3.29 89.92" stroke="#1e1e1e" stroke-width="2" fill="none"></path></g></g><mask></mask><g stroke-linecap="round"><g transform="translate(193.810861049594 496.5) rotate(0 -0.000044580465669241676 57.954166412353516)"><path d="M-0.23 -0.35 C-0.44 18.88, -1.13 95.64, -1 115.05 M-1.82 -1.57 C-1.68 17.81, 0.87 96.28, 1.19 116.14" stroke="#1e1e1e" stroke-width="2" fill="none"></path></g><g transform="translate(193.810861049594 496.5) rotate(0 -0.000044580465669241676 57.954166412353516)"><path d="M-7.95 92.87 C-5.65 98.68, -3.58 108.78, 1.19 116.14 M-7.95 92.87 C-5.17 99.28, -1.86 107.74, 1.19 116.14" stroke="#1e1e1e" stroke-width="2" fill="none"></path></g><g transform="translate(193.810861049594 496.5) rotate(0 -0.000044580465669241676 57.954166412353516)"><path d="M9.15 92.44 C5.96 98.36, 2.56 108.59, 1.19 116.14 M9.15 92.44 C6.51 98.96, 4.39 107.55, 1.19 116.14" stroke="#1e1e1e" stroke-width="2" fill="none"></path></g></g><mask></mask><g stroke-linecap="round"><g transform="translate(193.81076974672624 658.408332824707) rotate(0 -0.0000065159011910509435 59.5)"><path d="M-1 -0.86 C-0.86 19.07, 0.31 99.26, 0.59 119.21 M0.68 1.31 C0.73 20.87, 0.02 97.41, -0.05 117.19" stroke="#1e1e1e" stroke-width="2" fill="none"></path></g><g transform="translate(193.81076974672624 658.408332824707) rotate(0 -0.0000065159011910509435 59.5)"><path d="M-8.45 93.65 C-7.59 101.3, -3.46 108.02, -0.05 117.19 M-8.45 93.65 C-5.95 100.52, -3.19 107.79, -0.05 117.19" stroke="#1e1e1e" stroke-width="2" fill="none"></path></g><g transform="translate(193.81076974672624 658.408332824707) rotate(0 -0.0000065159011910509435 59.5)"><path d="M8.65 93.76 C4.71 101.24, 4.05 107.93, -0.05 117.19 M8.65 93.76 C6.28 100.43, 4.17 107.67, -0.05 117.19" stroke="#1e1e1e" stroke-width="2" fill="none"></path></g></g><mask></mask><g stroke-linecap="round"><g transform="translate(634.768754196167 76.09166717529297) rotate(0 0 39)"><path d="M0.59 0.21 C0.86 13.32, 0.8 65.05, 0.66 77.82 M-0.56 -0.73 C-0.3 12.65, 0.16 66.22, 0.05 79.26" stroke="#1e1e1e" stroke-width="2" fill="none"></path></g><g transform="translate(634.768754196167 76.09166717529297) rotate(0 0 39)"><path d="M-8.54 55.78 C-6.49 61.93, -5.28 65.43, 0.05 79.26 M-8.54 55.78 C-6.23 61.15, -4.71 65.15, 0.05 79.26" stroke="#1e1e1e" stroke-width="2" fill="none"></path></g><g transform="translate(634.768754196167 76.09166717529297) rotate(0 0 39)"><path d="M8.56 55.75 C6.9 61.99, 4.4 65.5, 0.05 79.26 M8.56 55.75 C7.42 61.14, 5.5 65.15, 0.05 79.26" stroke="#1e1e1e" stroke-width="2" fill="none"></path></g></g><mask></mask><g mask="url(#mask-OlB9xq1fP7fFFYTzDlAhU)" stroke-linecap="round"><g transform="translate(635.3908946217985 199.59166717529297) rotate(0 -0.1670474279078462 44.51136030756061)"><path d="M0.66 -0.18 C0.45 14.42, -0.5 72.96, -0.63 87.84 M-0.46 -1.32 C-0.9 13.36, -1.68 73.45, -1.74 88.76" stroke="#1e1e1e" stroke-width="2" fill="none"></path></g><g transform="translate(635.3908946217985 199.59166717529297) rotate(0 -0.1670474279078462 44.51136030756061)"><path d="M-10.07 65.19 C-7.42 72.87, -6.18 81.92, -1.74 88.76 M-10.07 65.19 C-7.04 72.32, -4.04 79.91, -1.74 88.76" stroke="#1e1e1e" stroke-width="2" fill="none"></path></g><g transform="translate(635.3908946217985 199.59166717529297) rotate(0 -0.1670474279078462 44.51136030756061)"><path d="M7.03 65.35 C3.71 73.07, -1.02 82.06, -1.74 88.76 M7.03 65.35 C4.78 72.54, 2.51 80.08, -1.74 88.76" stroke="#1e1e1e" stroke-width="2" fill="none"></path></g></g><mask id="mask-OlB9xq1fP7fFFYTzDlAhU"><rect x="0" y="0" fill="#fff" width="735.7249894776141" height="388.6143877904142"></rect><rect x="544.8821800185976" y="231.6030274828554" fill="#000" width="180.68333435058594" height="25" opacity="1"></rect></mask><g mask="url(#mask-rQtI_sI04k8ZiPpSMmU1J)" stroke-linecap="round"><g transform="translate(603.3964990070183 423.9502904349938) rotate(0 -32.63237240542571 154.7290211948566)"><path d="M-0.3 -1.18 C-11.25 15.36, -64.54 47.16, -65.07 99.06 C-65.59 150.96, -13.67 275.18, -3.45 310.23 M1.75 0.81 C-9.41 17.58, -64.98 49.41, -65.91 100.65 C-66.85 151.9, -14.32 273.34, -3.87 308.29" stroke="#2f9e44" stroke-width="2" fill="none"></path></g><g transform="translate(603.3964990070183 423.9502904349938) rotate(0 -32.63237240542571 154.7290211948566)"><path d="M-19.87 289.08 C-16.19 296.26, -8.38 303.82, -3.87 308.29 M-19.87 289.08 C-13.21 296.32, -7.32 302.61, -3.87 308.29" stroke="#2f9e44" stroke-width="2" fill="none"></path></g><g transform="translate(603.3964990070183 423.9502904349938) rotate(0 -32.63237240542571 154.7290211948566)"><path d="M-3.78 283.29 C-5.82 292.49, -3.71 302.1, -3.87 308.29 M-3.78 283.29 C-2.97 292.63, -2.93 301.02, -3.87 308.29" stroke="#2f9e44" stroke-width="2" fill="none"></path></g></g><mask id="mask-rQtI_sI04k8ZiPpSMmU1J"><rect x="0" y="0" fill="#fff" width="768.6612438178697" height="833.408332824707"></rect><rect x="522.0734217529296" y="510.40866717529207" fill="#000" width="32.11666488647461" height="25" opacity="1"></rect></mask><g mask="url(#mask-eOfzVwunuaK0MEQ6sP82x)" stroke-linecap="round"><g transform="translate(669.6730367088962 421.5043846625631) rotate(0 41.824072042238754 45.45197408107197)"><path d="M0.2 0.1 C8.48 6, 35.4 19.06, 49.37 34.18 C63.35 49.29, 78.18 81.3, 84.04 90.8 M-1.16 -0.89 C7.04 4.77, 34.65 16.97, 48.76 32.46 C62.87 47.95, 77.39 82.07, 83.48 92.06" stroke="#e03131" stroke-width="2" fill="none"></path></g><g transform="translate(669.6730367088962 421.5043846625631) rotate(0 41.824072042238754 45.45197408107197)"><path d="M65.01 75.22 C70.1 80.89, 76.3 85.11, 83.48 92.06 M65.01 75.22 C71.35 79.59, 76.25 85.7, 83.48 92.06" stroke="#e03131" stroke-width="2" fill="none"></path></g><g transform="translate(669.6730367088962 421.5043846625631) rotate(0 41.824072042238754 45.45197408107197)"><path d="M80.16 67.29 C81 75.17, 83.03 81.57, 83.48 92.06 M80.16 67.29 C82.15 74, 82.63 82.43, 83.48 92.06" stroke="#e03131" stroke-width="2" fill="none"></path></g></g><mask id="mask-eOfzVwunuaK0MEQ6sP82x"><rect x="0" y="0" fill="#fff" width="853.3211807933737" height="612.408332824707"></rect><rect x="706.4224206085205" y="442.40866717529207" fill="#000" width="23.96666717529297" height="25" opacity="1"></rect></mask><g stroke-linecap="round"><g transform="translate(744.405754196167 561.9086671752921) rotate(0 0 39)"><path d="M0.64 0.77 C0.67 13.74, 0.35 64.98, 0.39 77.9 M-0.48 0.13 C-0.59 13.28, -0.53 66.11, -0.35 79.38" stroke="#1e1e1e" stroke-width="2" fill="none"></path></g><g transform="translate(744.405754196167 561.9086671752921) rotate(0 0 39)"><path d="M-9.05 55.94 C-4.99 63.97, -3.7 72.25, -0.35 79.38 M-9.05 55.94 C-5.7 64.27, -3.28 71.44, -0.35 79.38" stroke="#1e1e1e" stroke-width="2" fill="none"></path></g><g transform="translate(744.405754196167 561.9086671752921) rotate(0 0 39)"><path d="M8.05 55.83 C6.7 63.98, 2.58 72.3, -0.35 79.38 M8.05 55.83 C5.88 64.11, 2.78 71.32, -0.35 79.38" stroke="#1e1e1e" stroke-width="2" fill="none"></path></g></g><mask></mask><g stroke-linecap="round"><g transform="translate(743.905754196167 684.9086671752921) rotate(0 -25.201000000000022 24.5)"><path d="M0.39 -0.1 C-7.96 7.98, -41.19 41.19, -49.49 49.28 M-0.86 -1.2 C-9.35 6.43, -41.82 38.86, -49.96 47.3" stroke="#1e1e1e" stroke-width="2" fill="none"></path></g><g transform="translate(743.905754196167 684.9086671752921) rotate(0 -25.201000000000022 24.5)"><path d="M-39.54 24.57 C-43.25 34.16, -46.29 42.33, -49.96 47.3 M-39.54 24.57 C-42.12 30.66, -44.5 35.84, -49.96 47.3" stroke="#1e1e1e" stroke-width="2" fill="none"></path></g><g transform="translate(743.905754196167 684.9086671752921) rotate(0 -25.201000000000022 24.5)"><path d="M-27.37 36.58 C-35.45 41.97, -42.8 45.9, -49.96 47.3 M-27.37 36.58 C-33.04 39.75, -38.48 41.91, -49.96 47.3" stroke="#1e1e1e" stroke-width="2" fill="none"></path></g></g><mask></mask><g transform="translate(132.56042289733887 99.09166717529297) rotate(0 67.25 12.5)"><text x="67.25" y="17.52" font-family="Virgil, Segoe UI Emoji" font-size="20px" fill="#1e1e1e" text-anchor="middle" style="white-space: pre;" direction="ltr" dominant-baseline="alphabetic">Scheduler Job</text></g><g transform="translate(136.91875648498535 326.09166717529297) rotate(0 59.891666412353516 12.5)"><text x="59.891666412353516" y="17.52" font-family="Virgil, Segoe UI Emoji" font-size="20px" fill="#1e1e1e" text-anchor="middle" style="white-space: pre;" direction="ltr" dominant-baseline="alphabetic">Dataservice</text></g><g transform="translate(75.90209007263184 461) rotate(0 117.90833282470703 12.5)"><text x="117.90833282470703" y="17.52" font-family="Virgil, Segoe UI Emoji" font-size="20px" fill="#1e1e1e" text-anchor="middle" style="white-space: pre;" direction="ltr" dominant-baseline="alphabetic">Fetch Data from itch.io</text></g><g transform="translate(107.38541984558105 622.908332824707) rotate(0 86.42500305175781 12.5)"><text x="86.42500305175781" y="17.52" font-family="Virgil, Segoe UI Emoji" font-size="20px" fill="#1e1e1e" text-anchor="middle" style="white-space: pre;" direction="ltr" dominant-baseline="alphabetic">Build Bleve Index</text></g><g transform="translate(51.25208854675293 787.908332824707) rotate(0 142.55833435058594 12.5)"><text x="142.55833435058594" y="17.52" font-family="Virgil, Segoe UI Emoji" font-size="20px" fill="#1e1e1e" text-anchor="middle" style="white-space: pre;" direction="ltr" dominant-baseline="alphabetic">Upload Data &amp; Index to S3</text></g><g transform="translate(571.818754196167 41.09166717529297) rotate(0 62.95000076293945 12.5)"><text x="62.95000076293945" y="17.52" font-family="Virgil, Segoe UI Emoji" font-size="20px" fill="#1e1e1e" text-anchor="middle" style="white-space: pre;" direction="ltr" dominant-baseline="alphabetic">Web Request</text></g><g transform="translate(586.5604228973389 164.09166717529297) rotate(0 48.20833206176758 12.5)"><text x="48.20833206176758" y="17.52" font-family="Virgil, Segoe UI Emoji" font-size="20px" fill="#1e1e1e" text-anchor="middle" style="white-space: pre;" direction="ltr" dominant-baseline="alphabetic">Webserver</text></g><g transform="translate(604.3812561035156 344.9301619458565) rotate(0 30.683332443237305 26.865671641791778)"><text x="30.683332443237305" y="18.827462686567152" font-family="Virgil, Segoe UI Emoji" font-size="21.492537313432823px" fill="#1e1e1e" text-anchor="middle" style="white-space: pre;" direction="ltr" dominant-baseline="alphabetic">Cache</text><text x="30.683332443237305" y="45.693134328358184" font-family="Virgil, Segoe UI Emoji" font-size="21.492537313432823px" fill="#1e1e1e" text-anchor="middle" style="white-space: pre;" direction="ltr" dominant-baseline="alphabetic">Valid?</text></g><g transform="translate(516.7104206085205 743.908332824707) rotate(0 131.05833435058594 12.5)"><text x="131.05833435058594" y="17.52" font-family="Virgil, Segoe UI Emoji" font-size="20px" fill="#1e1e1e" text-anchor="middle" style="white-space: pre;" direction="ltr" dominant-baseline="alphabetic">Serve Request from Cache</text></g><g transform="translate(600.7229175567627 526.908332824707) rotate(0 143.68333435058594 12.5)"><text x="143.68333435058594" y="17.52" font-family="Virgil, Segoe UI Emoji" font-size="20px" fill="#1e1e1e" text-anchor="middle" style="white-space: pre;" direction="ltr" dominant-baseline="alphabetic">Load Data &amp; Index from S3</text></g><g transform="translate(675.3229160308838 649.908332824707) rotate(0 69.08333587646484 12.5)"><text x="69.08333587646484" y="17.52" font-family="Virgil, Segoe UI Emoji" font-size="20px" fill="#1e1e1e" text-anchor="middle" style="white-space: pre;" direction="ltr" dominant-baseline="alphabetic">Update Cache</text></g><g transform="translate(107.32948299538134 212.59166717529297) rotate(0 91.1338576631714 13.420688042921029)"><text x="90.9749984741211" y="17.52" font-family="Virgil, Segoe UI Emoji" font-size="20px" fill="#1e1e1e" text-anchor="middle" style="white-space: pre;" direction="ltr" dominant-baseline="alphabetic">triggers every 24h</text></g><g transform="translate(544.8821800185976 231.6030274828554) rotate(0 89.96888096307407 11.706087216714877)"><text x="90.34166717529297" y="17.52" font-family="Virgil, Segoe UI Emoji" font-size="20px" fill="#1e1e1e" text-anchor="middle" style="white-space: pre;" direction="ltr" dominant-baseline="alphabetic">checks local cache</text></g><g transform="translate(522.0734217529296 510.40866717529207) rotate(0 49.23383486544742 68.06630427790151)"><text x="16.058332443237305" y="17.52" font-family="Virgil, Segoe UI Emoji" font-size="20px" fill="#2f9e44" text-anchor="middle" style="white-space: pre;" direction="ltr" dominant-baseline="alphabetic">Yes</text></g><g transform="translate(706.4224206085205 442.40866717529207) rotate(0 4.692148195330105 24.68335429597937)"><text x="11.983333587646484" y="17.52" font-family="Virgil, Segoe UI Emoji" font-size="20px" fill="#e03131" text-anchor="middle" style="white-space: pre;" direction="ltr" dominant-baseline="alphabetic">No</text></g><g transform="translate(81 841) rotate(0 107.83333587646484 22.5)"><text x="0" y="31.536" font-family="Virgil, Segoe UI Emoji" font-size="36px" fill="#1971c2" text-anchor="start" style="white-space: pre;" direction="ltr" dominant-baseline="alphabetic">Dataservice</text></g><g transform="translate(112 26) rotate(0 81.50833129882812 22.5)"><text x="0" y="31.536" font-family="Virgil, Segoe UI Emoji" font-size="36px" fill="#f08c00" text-anchor="start" style="white-space: pre;" direction="ltr" dominant-baseline="alphabetic">Scheduler</text></g><g transform="translate(544 797) rotate(0 116.4000015258789 45)"><text x="116.4000015258789" y="31.536" font-family="Virgil, Segoe UI Emoji" font-size="36px" fill="#2f9e44" text-anchor="middle" style="white-space: pre;" direction="ltr" dominant-baseline="alphabetic">Webserver</text><text x="116.4000015258789" y="76.536" font-family="Virgil, Segoe UI Emoji" font-size="36px" fill="#2f9e44" text-anchor="middle" style="white-space: pre;" direction="ltr" dominant-baseline="alphabetic">(itchgrep.com)</text></g></svg>